# xmcd CD database file
#
# Track frame offsets:
#	150
#	26537
#	64950
#	98075
#	132537
#	139437
#	150300
#	179750
#	192237
#	239200
#	251800
#
# Disc length: 3500 seconds
#
# Revision: 1
# Processed by: cddbd v1.5.1PL2 Copyright (c) Steve Scherf et al.
# Submitted via: CDex 1.51
#
DISCID=a90daa0b
DTITLE=Osho - Ten Thousand Buddhas
DYEAR=1990
DGENRE=New Age
TTITLE0=Sangit Narayana
TTITLE1=Dancing Buddhas
TTITLE2=Om Mani Padme Hum
TTITLE3=Unio Mystica
TTITLE4=Sacred World
TTITLE5=Light On The Path
TTITLE6=The Bridge To That
TTITLE7=Lovers Of Meditation
TTITLE8=The Wheel Of Dharma
TTITLE9=All That Is Real Will Remain
TTITLE10=Living Buddha
EXTD=YEAR: 1990
EXTT0=
EXTT1=
EXTT2=
EXTT3=
EXTT4=
EXTT5=
EXTT6=
EXTT7=
EXTT8=
EXTT9=
EXTT10=
PLAYORDER=
